<svg width="410" height="274" viewBox="0 0 410 274" fill="none" xmlns="http://www.w3.org/2000/svg">
<path d="M243.02 49.9721C243.687 54.4786 243.004 59.0821 241.059 63.1993C239.113 67.3166 235.993 70.7625 232.092 73.1007C228.192 75.4388 223.687 76.5639 219.148 76.3336C214.609 76.1033 210.24 74.5278 206.595 71.8068C202.95 69.0858 200.193 65.3415 198.672 61.0484C197.151 56.7552 196.936 52.1062 198.053 47.6901C199.17 43.2741 201.569 39.2897 204.947 36.2416C208.324 33.1934 212.528 31.2187 217.026 30.5674C220.004 30.1305 223.039 30.2858 225.957 31.0245C228.875 31.7632 231.619 33.0709 234.033 34.8728C236.447 36.6747 238.483 38.9356 240.025 41.5263C241.567 44.1171 242.585 46.987 243.02 49.9721Z" fill="#F5F5F5"/>
<path d="M237.619 50.7613C238.124 54.1942 237.602 57.7002 236.118 60.8355C234.634 63.9707 232.256 66.5942 229.284 68.3739C226.313 70.1536 222.881 71.0094 219.424 70.8331C215.967 70.6568 212.639 69.4562 209.863 67.3834C207.087 65.3106 204.987 62.4587 203.828 59.1887C202.67 55.9187 202.505 52.3777 203.355 49.0138C204.205 45.65 206.031 42.6145 208.603 40.2918C211.175 37.969 214.376 36.4633 217.802 35.9653C222.386 35.2989 227.047 36.4824 230.762 39.2561C234.477 42.0299 236.943 46.1675 237.619 50.7613Z" fill="#EBEBEB"/>
<path d="M237.537 50.2189C237.434 50.2189 237.248 49.4846 236.778 48.1968C236.119 46.3888 235.186 44.6938 234.011 43.1716C233.206 42.1352 232.289 41.1906 231.278 40.3549C230.109 39.4053 228.823 38.6097 227.451 37.9875C226.713 37.6489 225.951 37.365 225.172 37.1381C223.517 36.6563 221.8 36.4273 220.077 36.4586C218.273 36.4935 216.486 36.8116 214.78 37.4012C213.953 37.6894 213.149 38.0393 212.374 38.4479C211.626 38.8409 210.91 39.2916 210.231 39.7959C209.576 40.2754 208.958 40.8049 208.384 41.3797C206.366 43.3593 204.864 45.8057 204.01 48.5037C203.429 50.3377 203.134 52.2509 203.136 54.1755C203.136 55.5509 203.223 56.3181 203.136 56.3346C203.048 56.351 202.797 55.6112 202.633 54.2083C202.423 52.2064 202.586 50.1828 203.114 48.2406C203.47 46.9019 203.98 45.6091 204.634 44.3882C205.41 42.9849 206.374 41.6944 207.498 40.5522C208.104 39.9244 208.759 39.3453 209.455 38.8205C210.178 38.2646 210.944 37.7679 211.746 37.3354C212.576 36.8835 213.44 36.4987 214.331 36.1846C215.251 35.8694 216.192 35.6222 217.147 35.4448C218.106 35.2808 219.077 35.1892 220.05 35.1708C220.993 35.1552 221.937 35.2175 222.87 35.3571C223.771 35.4849 224.66 35.6865 225.527 35.9599C226.361 36.1955 227.174 36.4979 227.96 36.8641C230.684 38.1609 233.03 40.1387 234.771 42.6072C235.927 44.2497 236.769 46.093 237.253 48.0433C237.603 49.4188 237.614 50.2079 237.537 50.2189Z" fill="#E0E0E0"/>
<path d="M223.773 63.3433L224.254 66.3628L221.564 66.7902L221.099 63.8584C218.415 64.1215 215.726 63.6995 214.064 62.7624L215.02 59.2388C216.732 60.0814 218.634 60.4593 220.536 60.3348L219.815 55.8412C216.721 55.5946 213.227 55.1288 212.615 51.2818C212.161 48.4268 213.834 45.6429 218 44.4812L217.524 41.4891L220.208 41.0562L220.678 43.9934C222.616 43.7922 224.574 44.0552 226.391 44.7606L225.577 48.2898C224.197 47.7557 222.725 47.5024 221.247 47.5445L221.98 52.1258C225.068 52.345 228.507 52.8162 229.114 56.6139C229.562 59.4087 227.905 62.1596 223.773 63.3433ZM219.213 51.8792L218.601 48.0432C217.229 48.5912 216.792 49.468 216.934 50.3557C217.076 51.2435 217.94 51.6928 219.213 51.8792ZM224.866 57.6222C224.718 56.6796 223.855 56.296 222.636 56.0768L223.231 59.7923C224.5 59.2826 224.975 58.488 224.839 57.6222H224.866Z" fill="#E0E0E0"/>
<path d="M362.817 149.056C362.817 149.056 357.728 146.108 352.463 158.202C347.199 170.296 345.357 177.196 345.357 177.196C345.357 177.196 343.924 179.749 342.148 178.248C340.371 176.746 337.774 172.319 334.97 173.316C332.051 174.346 331.275 177.727 332.133 182.572C332.991 187.416 334.483 198.113 334.615 199.077C334.746 200.042 334.287 201.467 332.909 200.634C331.531 199.801 323.414 191.773 319.838 195.861C316.263 199.949 320.872 213.062 321.353 214.493C321.834 215.923 321.577 216.581 320.904 216.986C320.232 217.392 317.756 214.432 315.356 212.24C312.956 210.048 309.785 207.933 307.921 210.465C306.057 212.997 306.013 223.069 316.493 238.731L321.823 245.679L330.569 244.666C349.107 241.378 356.301 234.352 356.809 231.25C357.318 228.149 353.617 227.327 350.381 227.113C347.144 226.899 343.274 227.162 343.121 226.395C342.968 225.628 343.236 225.003 344.602 224.346C345.969 223.688 358.586 217.923 359.045 212.503C359.504 207.084 348.112 206.799 346.548 206.382C344.985 205.966 345.712 204.634 346.483 204.07C347.254 203.505 355.989 197.154 360.067 194.414C364.146 191.674 366.037 188.764 364.752 185.942C363.517 183.202 358.548 184.424 356.235 184.183C353.923 183.942 354.759 181.136 354.759 181.136C354.759 181.136 358.433 175.009 363.473 162.822C368.514 150.634 362.719 148.996 362.719 148.996" fill="#EBEBEB"/>
<path d="M322.145 243.86C325.884 234.922 331.148 222.625 337.008 209.051C342.869 195.477 348.166 183.202 351.949 174.286L356.426 163.726L357.645 160.854L357.968 160.114C358.044 159.944 358.088 159.862 358.088 159.862C358.064 159.952 358.035 160.04 358 160.125L357.7 160.876C357.432 161.55 357.038 162.52 356.535 163.77C355.519 166.279 354.021 169.902 352.162 174.368C348.406 183.306 343.142 195.636 337.293 209.171C331.443 222.707 326.135 235.031 322.352 243.942" fill="#E0E0E0"/>
<path d="M338.326 179.624C338.436 179.806 338.524 180.001 338.589 180.204C338.736 180.583 338.938 181.136 339.184 181.848C339.666 183.224 340.278 185.136 340.917 187.268L342.557 192.721C342.754 193.367 342.918 193.915 343.055 194.365C343.131 194.562 343.182 194.768 343.208 194.978C343.097 194.798 343.009 194.605 342.946 194.403C342.792 194.019 342.59 193.466 342.355 192.759C341.885 191.378 341.3 189.471 340.66 187.328L339.02 181.892L338.517 180.248C338.424 180.051 338.359 179.84 338.326 179.624Z" fill="#E0E0E0"/>
<path d="M343.989 195.088C343.989 195.011 347.849 193.564 352.665 191.855C357.481 190.145 361.412 188.824 361.412 188.906C361.412 188.989 357.552 190.43 352.736 192.14C347.92 193.849 344.017 195.143 343.989 195.088Z" fill="#E0E0E0"/>
<path d="M334.057 215.49C334.266 215.44 334.481 215.416 334.696 215.419L336.451 215.315C337.927 215.227 339.972 215.095 342.218 214.871C344.465 214.646 346.493 214.388 347.958 214.18L349.697 213.945C349.909 213.899 350.125 213.881 350.342 213.89C350.143 213.974 349.933 214.031 349.719 214.06C349.314 214.147 348.724 214.262 347.991 214.394C346.532 214.652 344.503 214.942 342.246 215.172C339.988 215.402 337.943 215.49 336.456 215.523C335.713 215.523 335.117 215.523 334.702 215.523C334.486 215.541 334.269 215.53 334.057 215.49Z" fill="#E0E0E0"/>
<path d="M325.862 202.661C325.862 202.661 326.015 202.815 326.24 203.127C326.464 203.439 326.786 203.889 327.174 204.459C327.945 205.587 329 207.166 330.148 208.914C331.296 210.662 332.335 212.257 333.056 213.418C333.423 213.999 333.712 214.476 333.909 214.805C334.024 214.976 334.117 215.16 334.188 215.353C334.042 215.216 333.915 215.059 333.811 214.887C333.587 214.575 333.264 214.12 332.876 213.555C332.105 212.421 331.05 210.848 329.902 209.095C328.754 207.341 327.715 205.752 326.994 204.59C326.628 204.009 326.338 203.538 326.141 203.204C326.028 203.034 325.934 202.852 325.862 202.661Z" fill="#E0E0E0"/>
<path d="M314.809 219.578C314.983 219.762 315.141 219.962 315.279 220.175C315.596 220.63 316 221.2 316.481 221.88C317.482 223.326 318.848 225.338 320.341 227.562C321.833 229.787 323.173 231.82 324.129 233.295L325.25 235.054C325.397 235.264 325.523 235.488 325.627 235.722C325.449 235.538 325.289 235.336 325.152 235.119L323.954 233.415C322.954 231.968 321.587 229.963 320.089 227.732C318.592 225.502 317.258 223.474 316.301 222C315.853 221.299 315.481 220.707 315.18 220.241C315.031 220.035 314.906 219.813 314.809 219.578Z" fill="#E0E0E0"/>
<path d="M325.474 235.262C325.741 235.197 326.014 235.159 326.288 235.147L328.475 234.939C330.344 234.758 332.93 234.506 335.773 234.144C338.615 233.782 341.185 233.399 343.044 233.103L345.23 232.758C345.498 232.701 345.771 232.671 346.045 232.67C345.787 232.762 345.522 232.83 345.252 232.873C344.738 232.988 343.995 233.141 343.065 233.311C341.218 233.662 338.648 234.084 335.8 234.44C332.952 234.796 330.333 235.026 328.48 235.147C327.54 235.207 326.78 235.251 326.255 235.267C325.995 235.29 325.733 235.288 325.474 235.262Z" fill="#E0E0E0"/>
<path d="M168.592 186.134L64.4024 153.626C63.1164 153.225 62.0421 152.328 61.4157 151.133C60.7893 149.938 60.6622 148.542 61.0623 147.253L81.0976 82.7479C81.2939 82.1069 81.6148 81.5113 82.0416 80.9951C82.4685 80.4789 82.993 80.0525 83.5849 79.7403C84.1768 79.4281 84.8244 79.2363 85.4905 79.1759C86.1567 79.1156 86.8281 79.1879 87.4663 79.3886L191.661 111.901C192.945 112.303 194.018 113.199 194.644 114.393C195.269 115.587 195.396 116.982 194.996 118.269L174.933 182.791C174.534 184.077 173.642 185.151 172.453 185.778C171.263 186.405 169.875 186.533 168.592 186.134Z" fill="#E0E0E0"/>
<path d="M174.348 125.448C173.863 127.007 172.929 128.386 171.662 129.412C170.396 130.438 168.854 131.064 167.233 131.212C165.611 131.359 163.982 131.022 162.552 130.242C161.122 129.461 159.955 128.274 159.198 126.828C158.441 125.383 158.129 123.746 158.301 122.122C158.472 120.499 159.12 118.964 160.163 117.71C161.205 116.456 162.595 115.54 164.156 115.078C165.718 114.615 167.381 114.628 168.936 115.113C169.968 115.435 170.928 115.957 171.759 116.651C172.59 117.345 173.277 118.196 173.779 119.156C174.282 120.116 174.591 121.166 174.688 122.245C174.786 123.325 174.67 124.413 174.348 125.448Z" fill="white"/>
<path d="M174.933 134.479C174.427 134.413 173.928 134.303 173.441 134.15C171.363 133.491 169.619 132.053 168.571 130.137C167.524 128.221 167.254 125.974 167.817 123.863C168.381 121.753 169.734 119.941 171.597 118.806C173.459 117.67 175.686 117.298 177.815 117.767C179.944 118.236 181.81 119.51 183.026 121.324C184.241 123.137 184.713 125.351 184.341 127.504C183.97 129.657 182.785 131.583 181.033 132.883C179.28 134.182 177.095 134.754 174.933 134.479ZM176.972 118.094C175.481 117.906 173.967 118.149 172.609 118.794C171.251 119.439 170.104 120.459 169.304 121.734C168.503 123.009 168.082 124.486 168.09 125.993C168.098 127.499 168.535 128.972 169.348 130.239C170.162 131.506 171.32 132.513 172.685 133.143C174.05 133.774 175.566 134 177.055 133.797C178.544 133.594 179.945 132.969 181.092 131.996C182.239 131.023 183.086 129.742 183.532 128.303C184.153 126.298 183.955 124.128 182.981 122.27C182.008 120.411 180.338 119.016 178.339 118.39C177.883 118.252 177.417 118.153 176.945 118.094H176.972Z" fill="white"/>
<path d="M77.9435 128.523L75.9865 134.857L75.3359 134.655L77.1235 128.901L75.6366 128.435L75.817 127.854L77.9435 128.523Z" fill="white"/>
<path d="M82.6559 136.309L82.4755 136.89L78.042 135.504L78.1896 135.044L81.6172 133.284C82.5465 132.797 82.8144 132.413 82.9511 131.98C83.1807 131.246 82.8035 130.632 81.8577 130.336C81.5414 130.216 81.2022 130.169 80.8653 130.199C80.5284 130.228 80.2024 130.333 79.9116 130.506L79.5727 129.958C79.9517 129.74 80.374 129.608 80.8096 129.572C81.2451 129.536 81.6833 129.597 82.0928 129.75C83.3775 130.15 83.9897 131.06 83.6617 132.117C83.4704 132.725 83.1151 133.213 82.0217 133.761L79.2119 135.208L82.6559 136.309Z" fill="white"/>
<path d="M89.653 137.296L88.3847 136.907L87.8709 138.551L87.2203 138.343L87.7342 136.699L84.1699 135.603L84.3121 135.131L88.9697 131.98L89.6913 132.205L85.1867 135.285L87.9201 136.145L88.3738 134.677L89.0025 134.874L88.5487 136.343L89.8115 136.737L89.653 137.296Z" fill="white"/>
<path d="M99.3395 140.321L98.0767 139.927L97.5574 141.571L96.9068 141.368L97.4262 139.724L93.8564 138.628L94.004 138.156L98.6562 135L99.3778 135.225L94.8787 138.31L97.612 139.165L98.0658 137.702L98.6999 137.899L98.2407 139.362L99.509 139.757L99.3395 140.321Z" fill="white"/>
<path d="M104.927 141.844C104.594 142.94 103.582 143.532 102.035 143.05C101.195 142.819 100.475 142.274 100.023 141.526L100.499 141.11C100.872 141.764 101.487 142.244 102.21 142.447C103.303 142.787 104.02 142.447 104.26 141.669C104.501 140.891 104.162 140.189 102.555 139.685L101.21 139.269L102.522 136.189L105.982 137.285L105.802 137.866L102.91 136.962L102.068 138.918L102.883 139.17C104.785 139.74 105.277 140.726 104.927 141.844Z" fill="white"/>
<path d="M111.181 143.768C110.815 144.957 109.65 145.412 108.448 145.045C106.769 144.497 106.217 143.066 106.841 141.066C107.507 138.912 109.027 138.151 110.749 138.688C111.276 138.828 111.756 139.108 112.138 139.499L111.717 139.943C111.41 139.612 111.016 139.376 110.58 139.263C109.219 138.836 108.065 139.444 107.535 141.165C107.48 141.336 107.434 141.509 107.398 141.685C107.689 141.392 108.059 141.19 108.463 141.104C108.867 141.018 109.288 141.053 109.672 141.203C110.897 141.598 111.52 142.611 111.181 143.768ZM110.536 143.576C110.793 142.743 110.345 142.02 109.372 141.713C108.399 141.406 107.562 141.806 107.316 142.589C107.097 143.291 107.475 144.129 108.563 144.469C108.749 144.553 108.952 144.596 109.156 144.595C109.361 144.595 109.563 144.551 109.749 144.467C109.936 144.382 110.102 144.259 110.238 144.106C110.373 143.952 110.475 143.772 110.536 143.576Z" fill="white"/>
<path d="M119.812 146.541C119.479 147.598 118.462 148.185 116.937 147.697C116.094 147.466 115.37 146.921 114.914 146.173L115.39 145.757C115.767 146.417 116.39 146.9 117.123 147.1C118.167 147.428 118.899 147.1 119.14 146.332C119.38 145.565 118.998 144.908 117.828 144.54L117.374 144.398L117.522 143.921L119.96 142.277L116.724 141.269L116.904 140.688L120.971 141.959L120.824 142.42L118.336 144.118C119.67 144.601 120.124 145.527 119.812 146.541Z" fill="white"/>
<path d="M126.17 148.447C125.804 149.631 124.64 150.091 123.41 149.719C121.731 149.171 121.179 147.741 121.802 145.74C122.469 143.587 123.989 142.83 125.711 143.368C126.239 143.507 126.718 143.788 127.1 144.179L126.679 144.622C126.373 144.29 125.978 144.052 125.542 143.937C124.175 143.515 123.027 144.118 122.497 145.839C122.441 146.019 122.396 146.202 122.36 146.387C122.65 146.093 123.019 145.89 123.422 145.804C123.825 145.717 124.244 145.75 124.629 145.899C125.886 146.272 126.531 147.286 126.17 148.447ZM125.525 148.261C125.782 147.434 125.334 146.705 124.361 146.403C123.388 146.102 122.551 146.491 122.305 147.28C122.087 147.976 122.458 148.815 123.552 149.16C123.739 149.243 123.942 149.286 124.146 149.285C124.351 149.285 124.554 149.24 124.74 149.155C124.927 149.07 125.093 148.947 125.228 148.793C125.364 148.639 125.465 148.457 125.525 148.261Z" fill="white"/>
<path d="M133.386 145.817L133.239 146.278L128.773 151.33L128.067 151.105L132.441 146.173L129.194 145.16L128.822 146.343L128.182 146.141L128.729 144.376L133.386 145.817Z" fill="white"/>
<path d="M142.406 148.634L142.264 149.1L137.792 154.147L137.087 153.928L141.46 148.996L138.18 147.982L137.814 149.171L137.169 148.968L137.716 147.204L142.406 148.634Z" fill="white"/>
<path d="M147.206 155.15C146.856 156.273 145.692 156.673 144.183 156.202C142.674 155.73 141.963 154.744 142.313 153.621C142.419 153.258 142.645 152.944 142.955 152.729C143.265 152.515 143.638 152.413 144.014 152.442C143.751 152.256 143.555 151.989 143.457 151.682C143.358 151.374 143.362 151.043 143.467 150.738C143.784 149.708 144.861 149.341 146.2 149.757C147.54 150.174 148.228 151.094 147.911 152.125C147.823 152.441 147.633 152.72 147.371 152.918C147.11 153.116 146.79 153.222 146.463 153.221C146.788 153.408 147.039 153.702 147.175 154.053C147.31 154.404 147.321 154.791 147.206 155.15ZM146.545 154.93C146.785 154.152 146.266 153.456 145.145 153.105C144.024 152.755 143.215 153.04 142.958 153.818C142.702 154.596 143.221 155.303 144.342 155.648C145.462 155.993 146.299 155.719 146.545 154.93ZM145.309 152.59C146.293 152.897 147.015 152.634 147.228 151.949C147.441 151.264 146.966 150.607 146.014 150.305C145.063 150.004 144.32 150.25 144.101 150.957C143.882 151.664 144.32 152.283 145.309 152.59Z" fill="white"/>
<path d="M153.799 155.632C153.132 157.785 151.612 158.542 149.89 158.005C149.363 157.866 148.882 157.586 148.502 157.194L148.923 156.75C149.227 157.083 149.623 157.32 150.06 157.429C151.421 157.857 152.575 157.254 153.105 155.533C153.154 155.385 153.198 155.204 153.242 154.985C152.95 155.279 152.58 155.481 152.176 155.566C151.772 155.652 151.352 155.618 150.967 155.467C149.716 155.078 149.07 154.059 149.431 152.903C149.792 151.746 150.962 151.259 152.165 151.631C153.87 152.152 154.422 153.604 153.799 155.632ZM153.296 154.092C153.515 153.396 153.138 152.552 152.05 152.212C151.863 152.13 151.661 152.087 151.456 152.088C151.252 152.089 151.05 152.133 150.864 152.217C150.678 152.302 150.512 152.424 150.376 152.577C150.24 152.73 150.138 152.91 150.076 153.105C149.814 153.938 150.262 154.667 151.241 154.969C152.219 155.27 153.067 154.859 153.296 154.07V154.092Z" fill="white"/>
<path d="M161.179 154.492L159.211 160.833L158.561 160.63L160.348 154.87L158.856 154.405L159.036 153.824L161.179 154.492Z" fill="white"/>
<path d="M165.891 162.279L165.711 162.86L161.267 161.474L161.409 161.013L164.836 159.254C165.771 158.772 166.039 158.389 166.176 157.95C166.4 157.221 166.028 156.608 165.082 156.306C164.766 156.186 164.427 156.138 164.091 156.166C163.754 156.195 163.428 156.299 163.136 156.471L162.803 155.923C163.182 155.705 163.605 155.574 164.04 155.539C164.476 155.504 164.914 155.566 165.323 155.72C166.602 156.12 167.214 157.024 166.886 158.082C166.695 158.69 166.34 159.178 165.246 159.726L162.442 161.172L165.891 162.279Z" fill="white"/>
<path d="M171.948 162.811C171.62 163.868 170.598 164.455 169.067 163.967C168.227 163.732 167.507 163.188 167.05 162.443L167.525 162.027C167.905 162.683 168.525 163.164 169.253 163.37C170.302 163.698 171.035 163.37 171.276 162.602C171.516 161.835 171.133 161.178 169.964 160.81L169.51 160.668L169.657 160.191L172.096 158.547L168.859 157.539L169.04 156.958L173.107 158.224L172.965 158.69L170.472 160.383C171.806 160.871 172.26 161.797 171.948 162.811Z" fill="white"/>
<path d="M121.38 154.178L120.525 156.93L171.161 172.73L172.016 169.978L121.38 154.178Z" fill="white"/>
<path d="M144.34 167.373L143.485 170.125L169.458 178.23L170.313 175.478L144.34 167.373Z" fill="white"/>
<g opacity="0.5">
<path opacity="0.5" d="M99.3858 111.764L83.3145 106.749C81.8847 106.303 80.3648 107.103 79.9197 108.537L76.5906 119.258C76.1456 120.691 76.9439 122.215 78.3737 122.661L94.445 127.676C95.8748 128.122 97.3947 127.322 97.8398 125.888L101.169 115.167C101.614 113.734 100.816 112.21 99.3858 111.764Z" fill="#EBEBEB"/>
</g>
<path d="M77.1504 117.447L77.4675 116.428L88.4008 119.842C88.7041 119.945 89.025 119.987 89.3446 119.964C89.6642 119.941 89.976 119.854 90.2616 119.709C90.5471 119.563 90.8007 119.362 91.0074 119.116C91.2141 118.871 91.3697 118.586 91.4649 118.28C91.5602 117.973 91.5933 117.65 91.5622 117.331C91.5311 117.011 91.4364 116.701 91.2838 116.419C91.1312 116.136 90.9237 115.887 90.6736 115.687C90.4235 115.486 90.1359 115.337 89.8276 115.25L78.8943 111.836L79.2113 110.816L90.1447 114.23C90.5921 114.355 91.01 114.568 91.3737 114.858C91.7373 115.147 92.0392 115.507 92.2615 115.915C92.4837 116.324 92.6218 116.773 92.6675 117.237C92.7131 117.7 92.6655 118.167 92.5274 118.612C92.3893 119.056 92.1635 119.468 91.8634 119.824C91.5634 120.179 91.1951 120.47 90.7807 120.68C90.3662 120.89 89.9139 121.014 89.4506 121.045C88.9873 121.076 88.5225 121.014 88.0837 120.861L77.1504 117.447Z" fill="#E0E0E0"/>
<path d="M91.7387 118.566L91.4189 119.581L98.8922 121.947L99.212 120.932L91.7387 118.566Z" fill="#E0E0E0"/>
<path d="M141.949 110.68L87.3047 93.6294L85.8457 98.3281L140.49 115.379L141.949 110.68Z" fill="white"/>
<path d="M104.265 216.728C104.686 219.576 104.253 222.485 103.023 225.087C101.793 227.689 99.8213 229.866 97.3564 231.343C94.8915 232.821 92.0448 233.532 89.1765 233.387C86.3082 233.242 83.5473 232.247 81.2432 230.529C78.9391 228.81 77.1955 226.445 76.233 223.732C75.2704 221.02 75.1323 218.082 75.8361 215.291C76.5398 212.5 78.0538 209.981 80.1864 208.052C82.319 206.124 84.9743 204.874 87.8163 204.459C89.7001 204.182 91.6198 204.279 93.466 204.746C95.3121 205.212 97.0485 206.039 98.576 207.178C100.103 208.318 101.392 209.748 102.368 211.386C103.344 213.025 103.989 214.84 104.265 216.728Z" fill="#F5F5F5"/>
<path d="M100.849 217.227C101.169 219.398 100.84 221.616 99.9018 223.6C98.964 225.583 97.4602 227.243 95.5809 228.369C93.7015 229.495 91.531 230.037 89.3443 229.926C87.1575 229.816 85.0527 229.057 83.2963 227.746C81.54 226.435 80.211 224.632 79.4778 222.564C78.7445 220.495 78.6399 218.256 79.1771 216.128C79.7143 214 80.8693 212.08 82.4957 210.61C84.1222 209.141 86.147 208.188 88.3139 207.873C91.2132 207.449 94.1616 208.197 96.5118 209.95C98.862 211.704 100.422 214.321 100.849 217.227Z" fill="#EBEBEB"/>
<path d="M100.794 216.882C100.59 216.474 100.428 216.046 100.313 215.605C99.8959 214.462 99.3059 213.39 98.5636 212.427C97.1503 210.586 95.1901 209.242 92.9657 208.591C92.4545 208.437 91.9316 208.325 91.4022 208.256C90.8588 208.183 90.3106 208.15 89.7622 208.158C89.1925 208.175 88.6246 208.23 88.0621 208.322C87.5062 208.429 86.9583 208.573 86.4221 208.755C85.8994 208.937 85.3913 209.158 84.9024 209.418C83.9763 209.911 83.1257 210.535 82.3768 211.27C81.6971 211.938 81.1071 212.691 80.622 213.512C80.1994 214.23 79.8566 214.993 79.5997 215.786C79.2353 216.945 79.0509 218.154 79.053 219.37C79.105 219.825 79.105 220.285 79.053 220.74C78.8566 220.317 78.7487 219.858 78.736 219.392C78.6076 218.125 78.7113 216.845 79.0421 215.616C79.2757 214.763 79.6059 213.939 80.0261 213.161C80.5189 212.268 81.1293 211.446 81.8411 210.717C82.2234 210.319 82.6365 209.953 83.0765 209.621C83.5345 209.271 84.0189 208.958 84.5252 208.684C85.0524 208.401 85.6007 208.159 86.1652 207.96C86.7471 207.76 87.3427 207.603 87.9473 207.489C88.5544 207.385 89.1683 207.326 89.7841 207.314C90.3804 207.307 90.9763 207.347 91.5662 207.434C92.1368 207.514 92.6999 207.641 93.25 207.812C93.7764 207.974 94.2899 208.176 94.7861 208.415C96.5094 209.235 97.993 210.487 99.0939 212.049C99.8285 213.086 100.366 214.251 100.679 215.484C100.818 215.936 100.857 216.413 100.794 216.882Z" fill="#E0E0E0"/>
<path d="M92.0857 225.184L92.3918 227.091L90.6917 227.365L90.3965 225.507C88.8807 225.704 87.3404 225.468 85.9521 224.828L86.5534 222.597C87.6378 223.122 88.8395 223.357 90.0411 223.277L89.5874 220.433C87.6249 220.279 85.4218 219.989 85.0337 217.55C84.7439 215.747 85.8045 213.988 88.4394 213.249L88.1387 211.358L89.8334 211.084L90.1341 212.942C91.3601 212.815 92.5985 212.983 93.7475 213.429L93.2337 215.66C92.3627 215.323 91.4336 215.163 90.5003 215.188L90.965 218.087C92.9221 218.224 95.0923 218.526 95.475 220.926C95.7483 222.696 94.7042 224.433 92.0857 225.184ZM89.1883 217.934L88.8002 215.512C87.931 215.863 87.6522 216.416 87.7451 216.975C87.8381 217.534 88.4011 217.813 89.1883 217.934ZM92.7635 221.567C92.6706 220.97 92.1239 220.729 91.3531 220.586L91.7303 222.937C92.5503 222.614 92.851 222.11 92.7635 221.567Z" fill="#E0E0E0"/>
<path d="M321.129 222.79C320.069 224.302 318.008 223.803 317.057 222.877C316.105 221.951 315.695 220.609 315.329 219.326C314.487 216.405 313.645 213.337 314.269 210.355C314.42 209.453 314.815 208.61 315.411 207.917C315.714 207.577 316.1 207.322 316.532 207.178C316.963 207.033 317.425 207.005 317.871 207.095C318.91 207.369 319.555 208.394 320.019 209.364C321.394 212.226 322.115 215.36 322.13 218.537C322.13 220.017 321.96 221.568 321.129 222.79Z" fill="#FF725E"/>
<g opacity="0.2">
<path opacity="0.2" d="M321.129 222.79C320.069 224.302 318.008 223.803 317.057 222.877C316.105 221.951 315.695 220.609 315.329 219.326C314.487 216.405 313.645 213.337 314.269 210.355C314.42 209.453 314.815 208.61 315.411 207.917C315.714 207.577 316.1 207.322 316.532 207.178C316.963 207.033 317.425 207.005 317.871 207.095C318.91 207.369 319.555 208.394 320.019 209.364C321.394 212.226 322.115 215.36 322.13 218.537C322.13 220.017 321.96 221.568 321.129 222.79Z" fill="black"/>
</g>
<path d="M317.16 230.472C315.382 229.635 313.384 229.391 311.458 229.776C310.407 229.869 309.418 230.313 308.648 231.037C307.943 231.815 307.812 233.185 308.616 233.854C309.137 234.206 309.766 234.365 310.392 234.303C311.896 234.303 313.568 234.018 314.766 234.928C315.454 235.448 315.908 236.309 316.734 236.572C317.144 236.665 317.574 236.623 317.958 236.451C318.342 236.279 318.661 235.987 318.866 235.618C319.261 234.862 319.347 233.982 319.106 233.163C319.011 232.594 318.786 232.055 318.448 231.589C318.111 231.122 317.67 230.74 317.16 230.472Z" fill="#FF725E"/>
<path d="M324.037 224.965C323.494 224.252 323.132 223.416 322.984 222.531C322.835 221.646 322.904 220.738 323.184 219.885C323.762 218.174 324.8 216.657 326.185 215.501C327.754 214.102 329.579 213.022 331.559 212.323C332.326 212.014 333.15 211.873 333.975 211.912C334.388 211.936 334.788 212.06 335.141 212.274C335.495 212.488 335.791 212.785 336.003 213.14C336.55 214.236 336.031 215.534 335.457 216.603C334.425 218.492 333.244 220.295 331.925 221.995C330.87 223.36 329.657 224.735 328.044 225.327C326.431 225.919 324.764 225.875 323.9 224.779" fill="#FF725E"/>
<path d="M321.2 245.674C321.148 245.447 321.117 245.216 321.107 244.984C321.058 244.485 320.998 243.855 320.921 243.104C320.827 242.184 320.686 241.27 320.5 240.364C320.253 239.254 319.918 238.166 319.5 237.109C319.096 236.053 318.544 235.06 317.86 234.161C316.927 232.913 315.54 232.085 314 231.859C313.768 231.853 313.537 231.82 313.312 231.761C313.544 231.738 313.779 231.738 314.011 231.761C314.649 231.811 315.273 231.974 315.854 232.243C316.708 232.655 317.456 233.259 318.04 234.007C318.756 234.919 319.334 235.931 319.757 237.01C320.185 238.084 320.518 239.194 320.752 240.326C320.928 241.249 321.051 242.183 321.118 243.121C321.178 243.915 321.2 244.562 321.211 245.011C321.233 245.232 321.229 245.454 321.2 245.674Z" fill="#263238"/>
<path d="M321.074 244.228C321.061 244.122 321.061 244.015 321.074 243.91C321.074 243.669 321.074 243.362 321.074 242.995C321.074 242.2 321.074 241.049 321.03 239.63C320.959 236.791 320.719 232.878 320.248 228.571C319.778 224.264 319.155 220.39 318.57 217.611C318.433 216.915 318.297 216.29 318.171 215.737C318.045 215.184 317.941 214.712 317.843 214.329C317.745 213.945 317.685 213.677 317.63 213.441C317.599 213.338 317.58 213.231 317.575 213.123C317.621 213.22 317.658 213.321 317.685 213.424L317.952 214.301C318.067 214.685 318.187 215.156 318.324 215.704C318.461 216.252 318.619 216.871 318.767 217.567C319.547 221.187 320.134 224.845 320.527 228.527C321.003 232.846 321.211 236.747 321.232 239.613C321.232 241.038 321.232 242.189 321.183 242.984C321.183 243.356 321.139 243.658 321.129 243.899C321.12 244.01 321.102 244.12 321.074 244.228Z" fill="#263238"/>
<path d="M321.052 236.649C321.029 236.331 321.029 236.012 321.052 235.695C321.09 235.081 321.172 234.193 321.347 233.108C321.555 231.835 321.834 230.574 322.184 229.333C322.603 227.81 323.129 226.32 323.758 224.872C324.849 222.204 326.417 219.759 328.383 217.655C328.726 217.294 329.091 216.956 329.476 216.641C329.646 216.504 329.793 216.362 329.941 216.252L330.367 215.956C330.62 215.764 330.887 215.592 331.165 215.441C330.243 216.174 329.365 216.961 328.536 217.797C326.639 219.919 325.116 222.348 324.031 224.982C323.407 226.419 322.877 227.896 322.446 229.404C322.036 230.79 321.763 232.067 321.555 233.141C321.347 234.215 321.244 235.098 321.172 235.706C321.159 236.023 321.119 236.338 321.052 236.649Z" fill="#263238"/>
<path d="M202.267 193.181L117.653 103.462C117.226 103.008 116.996 102.402 117.014 101.777C117.031 101.153 117.295 100.561 117.746 100.13L173.293 47.5005C173.518 47.2878 173.781 47.1215 174.07 47.0111C174.358 46.9006 174.666 46.8482 174.974 46.8569C175.283 46.8655 175.587 46.9351 175.869 47.0615C176.151 47.1879 176.405 47.3688 176.617 47.5937L261.225 137.318C261.652 137.773 261.882 138.378 261.864 139.003C261.847 139.627 261.583 140.219 261.132 140.65L205.596 193.258C205.373 193.473 205.109 193.642 204.821 193.754C204.533 193.867 204.225 193.922 203.915 193.914C203.606 193.907 203.301 193.839 203.018 193.713C202.735 193.587 202.479 193.406 202.267 193.181Z" fill="#FF725E"/>
<g opacity="0.3">
<path opacity="0.3" d="M202.267 193.181L117.653 103.462C117.226 103.008 116.996 102.402 117.014 101.777C117.031 101.153 117.295 100.561 117.746 100.13L173.293 47.5005C173.518 47.2878 173.781 47.1215 174.07 47.0111C174.358 46.9006 174.666 46.8482 174.974 46.8569C175.283 46.8655 175.587 46.9351 175.869 47.0615C176.151 47.1879 176.405 47.3688 176.617 47.5937L261.225 137.318C261.652 137.773 261.882 138.378 261.864 139.003C261.847 139.627 261.583 140.219 261.132 140.65L205.596 193.258C205.373 193.473 205.109 193.642 204.821 193.754C204.533 193.867 204.225 193.922 203.915 193.914C203.606 193.907 203.301 193.839 203.018 193.713C202.735 193.587 202.479 193.406 202.267 193.181Z" fill="black"/>
</g>
<path d="M260.601 136.66L177.224 48.2512C176.931 47.9394 176.58 47.6885 176.19 47.5131C175.8 47.3377 175.379 47.2411 174.952 47.2289C174.525 47.2166 174.1 47.289 173.701 47.4419C173.302 47.5948 172.937 47.8251 172.626 48.1197L156.85 63.0746C156.694 63.2207 156.576 63.4033 156.507 63.606C156.439 63.8086 156.421 64.0252 156.456 64.2364C158.036 73.0811 164.344 80.9887 171.867 86.2276C180.952 92.557 191.721 95.8943 201.933 100.119C212.145 104.344 222.439 109.912 228.578 119.146C234.367 127.865 235.734 138.677 238.68 148.738C239.481 151.471 240.483 154.142 241.676 156.728C241.763 156.916 241.893 157.08 242.055 157.208C242.218 157.335 242.409 157.422 242.611 157.462C242.814 157.502 243.023 157.492 243.222 157.435C243.42 157.378 243.602 157.275 243.753 157.133L260.476 141.285C260.789 140.991 261.041 140.637 261.217 140.245C261.393 139.852 261.489 139.429 261.501 138.999C261.513 138.569 261.439 138.141 261.285 137.739C261.13 137.338 260.898 136.971 260.601 136.66Z" fill="#FF725E"/>
<path d="M175.994 73.9797C175.24 74.6976 174.234 74.5277 173.152 73.3605L171.02 71.0973L175.393 66.9653L177.405 69.1025C178.438 70.1985 178.498 71.1904 177.836 71.8425C177.642 72.0355 177.397 72.169 177.13 72.2272C176.863 72.2854 176.584 72.2661 176.328 72.1713C176.482 72.4667 176.533 72.8054 176.472 73.1332C176.412 73.4611 176.244 73.7591 175.994 73.9797ZM175.568 68.6915L174.54 69.667L175.48 70.6917C175.945 71.1849 176.371 71.2891 176.716 70.9657C177.06 70.6424 176.973 70.215 176.508 69.7218L175.568 68.6915ZM175.136 72.8618C175.502 72.5166 175.415 72.0672 174.917 71.5411L173.824 70.3629L172.731 71.3822L173.824 72.5659C174.338 73.092 174.764 73.218 175.136 72.8837V72.8618Z" fill="white"/>
<path d="M179.175 77.8705L177.257 75.8374L175.955 76.3361L174.982 75.3004L181.182 73.1084L182.122 74.1112L179.607 80.1995L178.601 79.1364L179.175 77.8705ZM179.64 76.8238L180.657 74.5496L178.333 75.4374L179.64 76.8238Z" fill="white"/>
<path d="M188.173 80.5558L183.8 84.6878L183.029 83.8438L183.625 79.1584L180.973 81.6518L180.033 80.649L184.407 76.5171L185.199 77.3555L184.598 82.0354L187.249 79.5256L188.173 80.5558Z" fill="white"/>
<path d="M188.004 85.669H186.84L185.747 86.7157L184.773 85.7019L189.147 81.5645L190.093 82.5728L188.053 84.5017H191.918L192.979 85.5977L189.327 85.6306L188.726 89.8721L187.633 88.6939L188.004 85.669Z" fill="white"/>
<path d="M157.079 90.354L156.346 89.5485L155.253 90.5458L154.865 90.1348L155.92 89.1375L153.782 86.8742L154.077 86.5893L158.74 86.2002L159.172 86.6605L154.651 87.0606L156.291 88.8032L157.215 87.9209L157.592 88.3264L156.669 89.2032L157.423 90.0033L157.079 90.354Z" fill="white"/>
<path d="M159.96 93.2092C159.288 93.8394 158.32 93.8449 157.402 92.8749C156.885 92.3612 156.582 91.6697 156.555 90.9405L157.069 90.8309C157.076 91.4635 157.331 92.068 157.779 92.5133C158.408 93.1818 159.058 93.2531 159.556 92.7818C160.053 92.3105 160.031 91.6858 159.332 90.946L159.058 90.661L159.365 90.3706L161.803 90.1678L159.867 88.1128L160.234 87.7676L162.666 90.3487L162.377 90.6227L159.878 90.8364C160.644 91.7406 160.6 92.6119 159.96 93.2092Z" fill="white"/>
<path d="M163.049 96.4478C162.365 97.0944 161.409 97.1218 160.463 96.1409C159.946 95.6302 159.644 94.9395 159.621 94.212L160.135 94.1024C160.146 94.7207 160.397 95.3104 160.835 95.7464C161.474 96.4314 162.147 96.4807 162.633 96.0149C163.12 95.5491 163.18 94.9189 162.207 93.8832L161.398 93.0283L163.584 91.335L165.656 93.527L165.29 93.8722L163.579 92.0638L162.169 93.1324L162.655 93.6804C163.798 94.8422 163.754 95.7518 163.049 96.4478Z" fill="white"/>
<path d="M166.4 99.9441C166.226 100.107 166.02 100.231 165.796 100.31C165.571 100.389 165.332 100.419 165.095 100.4C164.858 100.381 164.628 100.313 164.418 100.199C164.209 100.086 164.026 99.9298 163.88 99.7413C162.874 98.6727 163.065 97.3958 164.328 96.1957C165.689 94.9079 167.1 94.9792 168.127 96.0697C168.457 96.387 168.693 96.7888 168.811 97.2314L168.319 97.3794C168.237 97.012 168.046 96.6778 167.772 96.4204C166.958 95.5546 165.881 95.5217 164.793 96.5519C164.7 96.6396 164.59 96.7547 164.481 96.8807C164.811 96.785 165.161 96.7885 165.489 96.8908C165.816 96.9931 166.106 97.1897 166.323 97.4561C167.078 98.2507 167.132 99.2536 166.4 99.9441ZM166.006 99.5495C166.553 99.0508 166.504 98.3439 165.919 97.7247C165.814 97.585 165.682 97.4683 165.531 97.3818C165.379 97.2954 165.212 97.241 165.039 97.222C164.866 97.2029 164.69 97.2198 164.524 97.2714C164.358 97.3229 164.203 97.4082 164.071 97.5219C163.628 97.9384 163.557 98.7001 164.213 99.3906C164.314 99.5277 164.444 99.6417 164.592 99.7251C164.74 99.8085 164.905 99.8594 165.074 99.8744C165.244 99.8894 165.414 99.8682 165.575 99.8122C165.736 99.7562 165.883 99.6667 166.006 99.5495Z" fill="white"/>
<path d="M173.386 109.753L173.742 107.605L171.555 107.835L171.123 107.375L173.796 107.101L174.184 104.58L174.622 105.04L174.294 107.063L176.327 106.849L176.748 107.298L174.217 107.55L173.807 110.219L173.386 109.753Z" fill="white"/>
<path d="M176.273 112.817L176.628 110.663L174.441 110.893L174.004 110.433L176.677 110.164L177.071 107.644L177.503 108.098L177.18 110.121L179.208 109.912L179.635 110.362L177.098 110.614L176.688 113.282L176.273 112.817Z" fill="white"/>
<path d="M179.159 115.874L179.514 113.726L177.327 113.956L176.896 113.496L179.563 113.227L179.957 110.701L180.389 111.161L180.066 113.184L182.1 112.975L182.521 113.419L179.984 113.671L179.574 116.34L179.159 115.874Z" fill="white"/>
<path d="M182.04 118.916L182.395 116.768L180.208 116.998L179.776 116.537L182.444 116.263L182.838 113.743L183.27 114.203L182.947 116.225L184.981 116.011L185.402 116.461L182.865 116.713L182.461 119.382L182.04 118.916Z" fill="white"/>
<path d="M192.016 129.509L192.371 127.36L190.185 127.591L189.753 127.13L192.421 126.862L192.814 124.335L193.246 124.796L192.924 126.818L194.957 126.604L195.378 127.054L192.842 127.306L192.432 129.974L192.016 129.509Z" fill="white"/>
<path d="M194.903 132.572L195.258 130.418L193.072 130.649L192.64 130.194L195.307 129.92L195.701 127.399L196.133 127.859L195.81 129.881L197.844 129.668L198.265 130.117L195.728 130.369L195.318 133.038L194.903 132.572Z" fill="white"/>
<path d="M197.789 135.636L198.15 133.482L195.963 133.712L195.531 133.252L198.199 132.983L198.593 130.462L199.024 130.917L198.702 132.939L200.736 132.731L201.156 133.175L198.62 133.427L198.215 136.096L197.789 135.636Z" fill="white"/>
<path d="M200.681 138.693L201.037 136.545L198.85 136.775L198.418 136.315L201.086 136.046L201.479 133.52L201.917 133.98L201.589 136.002L203.622 135.789L204.043 136.238L201.507 136.49L201.102 139.159L200.681 138.693Z" fill="white"/>
<path d="M213.637 144.392L209.636 148.19L209.242 147.773L212.883 144.326L211.992 143.384L212.358 143.033L213.637 144.392Z" fill="white"/>
<path d="M214.189 150.7C213.522 151.336 212.549 151.336 211.631 150.366C211.114 149.852 210.811 149.16 210.783 148.431L211.297 148.322C211.307 148.955 211.562 149.56 212.008 150.009C212.636 150.673 213.292 150.749 213.79 150.278C214.287 149.807 214.265 149.182 213.56 148.437L213.292 148.152L213.593 147.867L216.031 147.659L214.096 145.609L214.462 145.258L216.895 147.839L216.605 148.119L214.112 148.333C214.878 149.248 214.839 150.103 214.189 150.7Z" fill="white"/>
<path d="M217.858 154.793L217.098 153.988L216.048 154.985L215.655 154.574L216.71 153.577L214.572 151.314L214.873 151.029L219.531 150.645L219.962 151.1L215.441 151.5L217.081 153.243L218.005 152.366L218.388 152.766L217.459 153.643L218.219 154.448L217.858 154.793Z" fill="white"/>
<path d="M220.088 158.542L219.721 158.887L217.064 156.07L217.36 155.796L220.563 155.917C221.438 155.95 221.788 155.78 222.061 155.522C222.526 155.078 222.504 154.481 221.924 153.878C221.743 153.662 221.516 153.49 221.26 153.374C221.003 153.259 220.724 153.202 220.443 153.21V152.662C220.806 152.658 221.167 152.734 221.497 152.886C221.828 153.037 222.121 153.26 222.356 153.539C223.122 154.355 223.198 155.259 222.526 155.895C222.143 156.257 221.689 156.443 220.656 156.443L218.027 156.35L220.088 158.542Z" fill="white"/>
<path d="M142.488 93.7078C142.706 93.526 142.972 93.4123 143.254 93.3806C143.535 93.349 143.82 93.4008 144.072 93.5297C144.325 93.6586 144.534 93.8589 144.674 94.1058C144.814 94.3528 144.879 94.6354 144.861 94.9189L144.314 94.886C144.33 94.7602 144.318 94.6324 144.278 94.5119C144.238 94.3915 144.172 94.2815 144.084 94.1901C144.008 94.1095 143.917 94.0447 143.816 93.9994C143.715 93.9541 143.606 93.9292 143.495 93.9262C143.272 93.92 143.055 94.0031 142.893 94.1572C142.73 94.3112 142.636 94.5236 142.629 94.7477C142.623 94.9717 142.706 95.189 142.86 95.3518C142.946 95.445 143.053 95.5172 143.171 95.5628C143.289 95.6084 143.417 95.6262 143.543 95.6148V96.1628C143.337 96.172 143.132 96.1344 142.943 96.0528C142.753 95.9712 142.585 95.8477 142.45 95.6916C142.316 95.5623 142.21 95.4067 142.14 95.2346C142.069 95.0625 142.034 94.8775 142.037 94.6913C142.041 94.5051 142.083 94.3217 142.16 94.1524C142.238 93.9832 142.35 93.8318 142.488 93.7078Z" fill="white"/>
<path d="M145.107 97.5438L144.265 96.6561L143.718 96.8753L143.292 96.4204L146.025 95.4614L146.435 95.8998L145.342 98.5686L144.866 98.0918L145.107 97.5438ZM145.309 97.089L145.752 96.0916L144.735 96.4807L145.309 97.089Z" fill="white"/>
<path d="M146.638 99.9987L146.818 99.122L146.452 98.7383L145.905 99.2425L145.484 98.7986L147.398 96.9902L148.179 97.8177C148.661 98.3274 148.699 98.9137 148.267 99.3028C148.144 99.4313 147.984 99.518 147.809 99.5504C147.635 99.5829 147.454 99.5595 147.294 99.4836L147.086 100.492L146.638 99.9987ZM147.797 98.1136L147.452 97.752L146.785 98.3822L147.13 98.7438C147.381 99.0124 147.638 99.0288 147.846 98.837C148.054 98.6452 148.048 98.3822 147.797 98.0917V98.1136Z" fill="white"/>
<path d="M147.431 100.459L147.906 100.295C147.952 100.603 148.092 100.89 148.305 101.117C148.551 101.38 148.737 101.402 148.852 101.292C149.207 100.952 147.912 100.076 148.622 99.4015C148.95 99.0947 149.464 99.1001 149.978 99.6427C150.204 99.8707 150.363 100.157 150.437 100.47L149.973 100.651C149.916 100.4 149.795 100.168 149.623 99.9769C149.371 99.7139 149.18 99.7084 149.076 99.818C148.726 100.152 150.016 101.04 149.317 101.703C148.994 102.005 148.475 101.999 147.955 101.451C147.685 101.181 147.503 100.835 147.431 100.459Z" fill="white"/>
<path d="M153.334 103.259L151.421 105.073L151.006 104.629L151.787 103.884L150.967 103.013L150.186 103.758L149.765 103.314L151.678 101.506L152.093 101.944L151.339 102.662L152.159 103.533L152.913 102.816L153.334 103.259Z" fill="white"/>
<path d="M152.694 104.504C152.893 104.293 153.15 104.146 153.432 104.083C153.714 104.02 154.009 104.044 154.277 104.151C154.546 104.258 154.777 104.443 154.939 104.683C155.101 104.923 155.188 105.206 155.188 105.496C155.188 105.785 155.101 106.069 154.939 106.308C154.777 106.548 154.546 106.733 154.277 106.84C154.009 106.947 153.714 106.971 153.432 106.908C153.15 106.845 152.893 106.698 152.694 106.487C152.56 106.359 152.454 106.206 152.381 106.035C152.308 105.865 152.271 105.681 152.271 105.496C152.271 105.31 152.308 105.127 152.381 104.956C152.454 104.786 152.56 104.632 152.694 104.504ZM154.247 106.148C154.332 106.076 154.4 105.988 154.449 105.888C154.498 105.789 154.525 105.68 154.53 105.569C154.535 105.459 154.516 105.348 154.476 105.245C154.436 105.142 154.374 105.048 154.296 104.969C154.184 104.845 154.038 104.756 153.876 104.715C153.713 104.674 153.543 104.682 153.385 104.739C153.228 104.796 153.091 104.898 152.991 105.034C152.892 105.169 152.836 105.33 152.829 105.498C152.822 105.666 152.865 105.832 152.952 105.975C153.04 106.118 153.168 106.231 153.32 106.301C153.472 106.371 153.642 106.393 153.807 106.366C153.972 106.339 154.125 106.263 154.247 106.148Z" fill="white"/>
<path d="M155.948 106.032L156.363 106.476L154.81 107.956L155.718 108.915L155.357 109.254L154.034 107.852L155.948 106.032Z" fill="white"/>
<path d="M157.506 107.688L158.326 108.559C158.461 108.681 158.571 108.829 158.646 108.996C158.722 109.162 158.762 109.342 158.765 109.525C158.767 109.708 158.732 109.889 158.661 110.057C158.59 110.226 158.485 110.377 158.352 110.503C158.22 110.628 158.063 110.725 157.891 110.787C157.72 110.848 157.537 110.873 157.355 110.861C157.173 110.848 156.996 110.798 156.835 110.713C156.673 110.628 156.531 110.51 156.418 110.367L155.598 109.496L157.506 107.688ZM156.757 110C156.821 110.102 156.907 110.188 157.008 110.253C157.109 110.318 157.223 110.36 157.342 110.376C157.462 110.391 157.583 110.381 157.697 110.344C157.812 110.308 157.917 110.247 158.005 110.165C158.094 110.084 158.163 109.983 158.209 109.872C158.254 109.76 158.275 109.64 158.269 109.52C158.263 109.4 158.23 109.282 158.174 109.176C158.118 109.069 158.039 108.977 157.943 108.904L157.56 108.499L156.379 109.6L156.757 110Z" fill="white"/>
<path d="M159.484 112.888L159.129 113.228L157.729 111.742L159.643 109.934L161.004 111.381L160.654 111.715L159.703 110.712L159.287 111.101L160.124 111.995L159.779 112.318L158.943 111.43L158.5 111.847L159.484 112.888Z" fill="white"/>
<path d="M160.616 114.817L160.797 113.945L160.43 113.562L159.884 114.066L159.463 113.622L161.376 111.808L162.158 112.641C162.639 113.151 162.677 113.737 162.245 114.126C162.123 114.255 161.963 114.341 161.788 114.374C161.613 114.406 161.433 114.383 161.272 114.307L161.065 115.315L160.616 114.817ZM161.775 112.932L161.431 112.57L160.769 113.206L161.108 113.567C161.365 113.836 161.617 113.852 161.824 113.655C162.032 113.458 162.027 113.206 161.775 112.932Z" fill="white"/>
<path d="M134.841 100.569L135.858 100.503C135.809 100.688 135.805 100.881 135.847 101.067C135.889 101.254 135.975 101.427 136.098 101.572C136.421 101.912 136.798 101.901 137.192 101.517L138.941 99.8731L137.717 98.5744L138.4 97.9277L140.428 100.076L138.039 102.334C137.126 103.199 136.251 103.161 135.431 102.295C135.206 102.073 135.036 101.801 134.933 101.502C134.831 101.202 134.799 100.883 134.841 100.569Z" fill="white"/>
<path d="M137.76 103.643C137.895 103.515 138.075 103.446 138.26 103.451C138.446 103.457 138.622 103.535 138.749 103.671C138.877 103.806 138.946 103.986 138.941 104.172C138.935 104.358 138.857 104.535 138.722 104.662C138.655 104.726 138.577 104.775 138.491 104.808C138.405 104.841 138.313 104.857 138.222 104.854C138.13 104.852 138.039 104.831 137.955 104.793C137.871 104.756 137.796 104.702 137.733 104.635C137.669 104.568 137.62 104.489 137.587 104.403C137.554 104.317 137.539 104.226 137.541 104.133C137.544 104.041 137.564 103.951 137.602 103.867C137.639 103.782 137.693 103.706 137.76 103.643Z" fill="white"/>
<path d="M147.567 107.616L142.745 109.896L141.882 108.981L143.609 105.808L140.329 107.331L139.471 106.422L142.007 101.72L142.844 102.602L141.04 105.89L144.451 104.306L145.194 105.095L143.379 108.411L146.802 106.8L147.567 107.616Z" fill="white"/>
<path d="M147.911 107.983C147.976 107.923 148.052 107.877 148.136 107.848C148.219 107.819 148.308 107.807 148.396 107.815C148.484 107.822 148.569 107.847 148.647 107.89C148.724 107.932 148.792 107.99 148.846 108.06C148.913 108.116 148.967 108.185 149.006 108.263C149.044 108.341 149.066 108.426 149.071 108.514C149.075 108.601 149.061 108.687 149.03 108.769C148.999 108.85 148.951 108.924 148.89 108.986C148.825 109.05 148.748 109.099 148.663 109.13C148.579 109.162 148.488 109.175 148.398 109.169C148.308 109.164 148.22 109.139 148.14 109.097C148.06 109.055 147.989 108.997 147.933 108.926C147.867 108.867 147.813 108.796 147.776 108.715C147.739 108.635 147.718 108.548 147.716 108.459C147.714 108.371 147.73 108.283 147.764 108.201C147.798 108.119 147.848 108.045 147.911 107.983ZM147.151 108.888L147.928 109.71L145.096 112.389L144.325 111.567L147.151 108.888Z" fill="white"/>
<path d="M149.721 109.458L150.497 110.28L146.594 113.984L145.817 113.162L149.721 109.458Z" fill="white"/>
<path d="M151.214 111.041L151.99 111.863L148.087 115.562L147.311 114.74L151.214 111.041Z" fill="white"/>
<path d="M152.394 112.735C152.46 112.676 152.537 112.631 152.62 112.602C152.704 112.574 152.792 112.563 152.88 112.571C152.968 112.578 153.054 112.603 153.132 112.644C153.21 112.685 153.279 112.742 153.334 112.811C153.4 112.868 153.453 112.939 153.491 113.017C153.529 113.096 153.55 113.182 153.553 113.269C153.557 113.356 153.543 113.443 153.512 113.525C153.481 113.606 153.433 113.68 153.372 113.743C153.235 113.852 153.063 113.906 152.889 113.895C152.714 113.884 152.55 113.808 152.428 113.682C152.306 113.557 152.235 113.39 152.229 113.215C152.223 113.04 152.281 112.869 152.394 112.735ZM151.634 113.644L152.41 114.466L149.584 117.146L148.808 116.324L151.634 113.644Z" fill="white"/>
<path d="M154.28 118.916L152.64 120.445L151.913 119.678L152.269 119.343C152.042 119.377 151.81 119.349 151.597 119.263C151.385 119.176 151.199 119.033 151.061 118.85C150.432 118.187 150.426 117.442 150.918 116.981C151.41 116.521 152.094 116.532 152.908 117.392L153.526 118.05C153.881 117.716 153.887 117.31 153.466 116.866C153.189 116.577 152.827 116.385 152.433 116.318L152.728 115.485C153.305 115.627 153.826 115.938 154.226 116.379C155.068 117.195 155.139 118.077 154.28 118.916ZM152.788 118.779L153.078 118.505L152.531 117.957C152.17 117.568 151.913 117.584 151.722 117.76C151.531 117.935 151.547 118.258 151.82 118.549C151.939 118.681 152.097 118.772 152.271 118.809C152.445 118.845 152.626 118.825 152.788 118.751V118.779Z" fill="white"/>
<path d="M159.506 124.396L157.866 125.93L157.096 125.108L158.588 123.695C159.042 123.262 159.058 122.856 158.747 122.527C158.435 122.198 157.921 122.122 157.413 122.599L155.997 123.947L155.221 123.125L156.713 121.711C157.172 121.272 157.194 120.878 156.872 120.538C156.549 120.198 156.052 120.138 155.543 120.62L154.16 121.979L153.384 121.157L156.21 118.478L156.954 119.261L156.626 119.574C156.855 119.571 157.082 119.618 157.29 119.713C157.499 119.807 157.685 119.947 157.834 120.122C158.016 120.295 158.149 120.513 158.222 120.754C158.295 120.995 158.304 121.251 158.249 121.497C158.516 121.478 158.784 121.52 159.032 121.621C159.281 121.722 159.503 121.878 159.681 122.078C160.299 122.752 160.365 123.596 159.506 124.396Z" fill="white"/>
<path d="M158.582 126.16L159.429 125.875C159.531 126.342 159.758 126.772 160.085 127.119C160.441 127.497 160.676 127.547 160.834 127.399C161.293 126.96 159.194 125.694 160.337 124.62C160.883 124.116 161.709 124.242 162.491 125.07C162.854 125.442 163.122 125.897 163.272 126.396L162.431 126.675C162.343 126.293 162.154 125.941 161.884 125.656C161.54 125.289 161.272 125.24 161.124 125.377C160.643 125.837 162.726 127.108 161.611 128.16C161.064 128.659 160.249 128.528 159.424 127.678C159.014 127.256 158.723 126.732 158.582 126.16Z" fill="white"/>
<path d="M191.245 157.851C192.459 156.7 193.782 156.722 194.64 157.626C195.498 158.531 195.444 159.862 194.225 161.013C193.006 162.164 191.694 162.147 190.83 161.238C189.966 160.328 190.032 159.002 191.245 157.851ZM193.432 160.153C194.268 159.364 194.339 158.739 193.935 158.311C193.53 157.884 192.913 157.922 192.076 158.717C191.24 159.512 191.169 160.131 191.568 160.553C191.967 160.975 192.579 160.947 193.416 160.153H193.432Z" fill="white"/>
<path d="M196.8 165.118C196.051 165.83 194.996 165.666 194.258 164.882C193.301 163.863 193.339 162.624 194.526 161.501C195.799 160.295 197.259 160.405 198.281 161.501C198.632 161.851 198.882 162.291 199.003 162.772L198.079 163.046C198.01 162.718 197.847 162.416 197.609 162.18C197.485 162.031 197.329 161.91 197.154 161.826C196.979 161.742 196.787 161.697 196.593 161.694C196.399 161.692 196.206 161.731 196.028 161.811C195.851 161.89 195.692 162.007 195.564 162.153C196.023 162.189 196.45 162.406 196.751 162.756C196.912 162.906 197.041 163.087 197.131 163.288C197.221 163.489 197.27 163.706 197.274 163.926C197.279 164.147 197.239 164.366 197.158 164.57C197.076 164.775 196.954 164.961 196.8 165.118ZM195.98 164.328C196.059 164.253 196.12 164.162 196.161 164.061C196.202 163.961 196.221 163.852 196.217 163.743C196.213 163.634 196.186 163.528 196.137 163.43C196.089 163.333 196.02 163.247 195.936 163.178C195.87 163.091 195.787 163.019 195.692 162.966C195.597 162.913 195.492 162.88 195.384 162.869C195.276 162.858 195.167 162.87 195.063 162.903C194.96 162.936 194.864 162.991 194.783 163.063C194.705 163.141 194.644 163.234 194.605 163.337C194.566 163.44 194.548 163.551 194.555 163.661C194.561 163.771 194.59 163.879 194.641 163.977C194.691 164.075 194.762 164.161 194.848 164.23C194.913 164.317 194.995 164.39 195.09 164.443C195.184 164.496 195.289 164.528 195.397 164.537C195.505 164.547 195.614 164.533 195.716 164.497C195.819 164.461 195.912 164.403 195.991 164.328H195.98Z" fill="white"/>
<path d="M201.72 163.742L202.414 164.471L195.816 167.43L195.127 166.696L201.72 163.742Z" fill="white"/>
<path d="M201.228 170.74L200.534 171.398L197.894 168.608L198.44 168.088L201.124 168.241C201.307 168.277 201.494 168.272 201.675 168.228C201.855 168.183 202.024 168.1 202.168 167.984C202.458 167.71 202.436 167.348 202.065 166.959C201.931 166.804 201.761 166.685 201.57 166.612C201.38 166.539 201.174 166.515 200.971 166.542L200.785 165.54C201.17 165.495 201.56 165.546 201.921 165.688C202.281 165.831 202.601 166.06 202.852 166.356C203.628 167.184 203.721 168.126 203.054 168.762C202.699 169.102 202.278 169.31 201.31 169.244L199.714 169.151L201.228 170.74Z" fill="white"/>
<path d="M204.776 174.341L204.229 173.743L203.458 174.472L202.671 173.639L203.447 172.91L201.572 170.921L202.146 170.373L206.121 169.902L206.968 170.795L203.229 171.277L204.163 172.269L204.852 171.617L205.612 172.423L204.923 173.075L205.47 173.678L204.776 174.341Z" fill="white"/>
<path d="M222.045 128.698C224.122 125.498 223.308 121.245 220.52 118.648C219.672 117.846 218.689 117.2 217.617 116.741C214.955 115.645 211.429 116.439 210.029 118.971C208.887 121.037 209.346 123.618 210.149 125.837C210.986 128.166 212.336 130.545 214.638 131.449C216.939 132.353 219.514 131.526 221.165 129.805C221.495 129.467 221.79 129.096 222.045 128.698Z" fill="#FF725E"/>
<path d="M272.749 130.019H132.95C127.684 130.019 123.416 134.297 123.416 139.576V236.04C123.416 241.318 127.684 245.597 132.95 245.597H272.749C278.014 245.597 282.283 241.318 282.283 236.04V139.576C282.283 134.297 278.014 130.019 272.749 130.019Z" fill="#61A705"/>
<path d="M282.282 139.575C282.282 139.575 282.282 139.46 282.282 139.23C282.272 138.887 282.239 138.544 282.184 138.205C281.992 136.871 281.515 135.594 280.784 134.463C280.249 133.63 279.593 132.882 278.838 132.243C277.916 131.485 276.861 130.906 275.728 130.533C275.422 130.429 275.099 130.369 274.777 130.276C274.454 130.183 274.11 130.172 273.765 130.117L272.71 130.068H266.817L209.816 130.111H170.456H148.524H134.141C133.17 130.073 132.198 130.128 131.238 130.276C129.305 130.632 127.533 131.591 126.176 133.016C125.491 133.726 124.924 134.542 124.498 135.433C124.058 136.323 123.77 137.28 123.645 138.266C123.551 139.267 123.52 140.274 123.552 141.28V156.728C123.552 165.079 123.552 173.597 123.552 182.281V235.985C123.555 238.277 124.387 240.491 125.892 242.216C127.377 243.931 129.435 245.044 131.681 245.345C132.801 245.442 133.925 245.473 135.049 245.438H221.509H266.691H271.95C272.808 245.465 273.667 245.408 274.514 245.268C275.347 245.108 276.154 244.835 276.914 244.457C277.291 244.272 277.656 244.063 278.007 243.832C278.349 243.591 278.678 243.332 278.991 243.054C279.922 242.234 280.68 241.235 281.222 240.117C281.764 239 282.078 237.785 282.146 236.544C282.2 229.968 282.146 223.644 282.178 217.616C282.178 193.504 282.217 173.973 282.228 160.482C282.228 153.736 282.228 148.502 282.255 144.946C282.255 143.176 282.255 141.822 282.255 140.907C282.255 139.992 282.255 139.532 282.255 139.532C282.255 139.532 282.255 139.997 282.255 140.907C282.255 141.817 282.255 143.176 282.255 144.946C282.255 148.502 282.255 153.714 282.282 160.482C282.282 173.973 282.282 193.493 282.326 217.616C282.326 223.644 282.364 229.963 282.326 236.555C282.234 238.245 281.698 239.88 280.773 241.295C280.312 242.007 279.761 242.655 279.133 243.224C278.812 243.509 278.475 243.774 278.122 244.019C277.771 244.254 277.405 244.468 277.029 244.66C276.253 245.05 275.427 245.33 274.574 245.493C273.713 245.639 272.84 245.697 271.967 245.668H266.708H221.526H171.593H135.027C133.89 245.704 132.753 245.671 131.621 245.57C129.307 245.265 127.185 244.121 125.657 242.353C124.114 240.581 123.26 238.31 123.251 235.958C123.251 217.55 123.251 199.587 123.251 182.254V156.728C123.251 152.556 123.251 148.427 123.251 144.343V141.291C123.219 140.272 123.252 139.253 123.35 138.238C123.479 137.226 123.777 136.242 124.23 135.328C124.667 134.41 125.25 133.57 125.957 132.841C126.658 132.119 127.461 131.506 128.341 131.021C129.226 130.55 130.177 130.218 131.162 130.035L131.9 129.92L132.638 129.881C133.135 129.854 133.622 129.881 134.108 129.881H170.423H209.783L266.784 129.931H272.65L273.716 129.985C274.06 130.046 274.405 130.084 274.733 130.155C275.061 130.227 275.383 130.309 275.689 130.418C276.832 130.795 277.894 131.383 278.822 132.15C279.581 132.795 280.239 133.55 280.773 134.391C281.501 135.533 281.971 136.819 282.151 138.162C282.207 138.502 282.236 138.847 282.239 139.192C282.282 139.46 282.282 139.575 282.282 139.575Z" fill="#263238"/>
<path d="M276.718 137.142C277.803 136.953 278.913 136.953 279.998 137.142C278.913 137.332 277.803 137.332 276.718 137.142Z" fill="#263238"/>
<path d="M263.335 137.142C265.561 136.953 267.8 136.953 270.026 137.142C267.8 137.332 265.561 137.332 263.335 137.142Z" fill="#263238"/>
<path d="M249.958 137.143C252.183 136.952 254.419 136.952 256.644 137.143C254.419 137.333 252.183 137.333 249.958 137.143Z" fill="#263238"/>
<path d="M236.575 137.142C238.802 136.953 241.04 136.953 243.266 137.142C241.04 137.332 238.802 137.332 236.575 137.142Z" fill="#263238"/>
<path d="M223.198 137.143C225.423 136.952 227.659 136.952 229.884 137.143C227.659 137.333 225.423 137.333 223.198 137.143Z" fill="#263238"/>
<path d="M209.816 137.142C212.043 136.953 214.281 136.953 216.508 137.142C214.281 137.332 212.043 137.332 209.816 137.142Z" fill="#263238"/>
<path d="M196.439 137.143C198.664 136.952 200.901 136.952 203.125 137.143C200.901 137.333 198.664 137.333 196.439 137.143Z" fill="#263238"/>
<path d="M183.057 137.142C185.283 136.953 187.521 136.953 189.748 137.142C187.521 137.332 185.283 137.332 183.057 137.142Z" fill="#263238"/>
<path d="M169.675 137.142C171.901 136.953 174.14 136.953 176.366 137.142C174.14 137.332 171.901 137.332 169.675 137.142Z" fill="#263238"/>
<path d="M156.298 137.142C157.402 137.002 158.515 136.955 159.627 137C160.744 136.954 161.863 137.001 162.973 137.142C161.864 137.287 160.744 137.334 159.627 137.285C158.515 137.333 157.401 137.286 156.298 137.142Z" fill="#263238"/>
<path d="M142.915 137.142C144.024 137.001 145.143 136.954 146.261 137C147.378 136.954 148.497 137.001 149.606 137.142C148.497 137.287 147.378 137.334 146.261 137.285C145.143 137.334 144.024 137.287 142.915 137.142Z" fill="#263238"/>
<path d="M132.949 140.43C132.805 139.341 132.758 138.241 132.807 137.142L132.949 137H134.223L135.267 137.033C135.591 137.021 135.915 137.054 136.229 137.132C135.915 137.213 135.591 137.248 135.267 137.236L134.223 137.263H133.611H132.949L133.091 137.121C133.139 138.226 133.091 139.333 132.949 140.43Z" fill="#263238"/>
<path d="M132.95 152.722C132.806 151.704 132.759 150.675 132.808 149.648C132.759 148.623 132.806 147.595 132.95 146.579C133.09 147.596 133.138 148.623 133.092 149.648C133.138 150.675 133.09 151.704 132.95 152.722Z" fill="#263238"/>
<path d="M132.95 165.014C132.76 162.97 132.76 160.914 132.95 158.871C133.139 160.914 133.139 162.97 132.95 165.014Z" fill="#263238"/>
<path d="M132.95 177.305C132.76 175.26 132.76 173.202 132.95 171.157C133.139 173.202 133.139 175.26 132.95 177.305Z" fill="#263238"/>
<path d="M132.95 189.608C132.76 187.563 132.76 185.505 132.95 183.459C133.139 185.505 133.139 187.563 132.95 189.608Z" fill="#263238"/>
<path d="M132.95 201.883C132.76 199.84 132.76 197.783 132.95 195.74C133.139 197.783 133.139 199.84 132.95 201.883Z" fill="#263238"/>
<path d="M132.95 214.175C132.76 212.132 132.76 210.075 132.95 208.032C133.139 210.075 133.139 212.132 132.95 214.175Z" fill="#263238"/>
<path d="M132.95 226.466C132.76 224.423 132.76 222.367 132.95 220.323C133.139 222.367 133.139 224.423 132.95 226.466Z" fill="#263238"/>
<path d="M136.229 235.903C135.142 236.044 134.045 236.092 132.949 236.046C132.665 235.761 132.867 235.963 132.807 235.898V235.246C132.807 235.032 132.807 234.829 132.807 234.626C132.807 234.265 132.807 233.919 132.807 233.58C132.792 233.256 132.827 232.933 132.911 232.621C132.989 232.934 133.022 233.257 133.01 233.58C133.01 233.919 133.01 234.265 133.042 234.626C133.042 234.829 133.042 235.032 133.042 235.246C133.042 235.35 133.042 235.459 133.042 235.569V235.898C132.977 235.837 133.184 236.046 132.9 235.761C134.012 235.708 135.126 235.756 136.229 235.903Z" fill="#263238"/>
<path d="M149.415 235.903C148.328 236.043 147.231 236.091 146.135 236.045C145.04 236.091 143.943 236.043 142.855 235.903C143.943 235.76 145.04 235.712 146.135 235.76C147.231 235.712 148.328 235.76 149.415 235.903Z" fill="#263238"/>
<path d="M162.601 235.903C161.514 236.043 160.416 236.091 159.321 236.045C158.226 236.091 157.128 236.043 156.041 235.903C157.128 235.76 158.226 235.712 159.321 235.76C160.416 235.712 161.514 235.76 162.601 235.903Z" fill="#263238"/>
<path d="M175.786 235.903C173.593 236.093 171.387 236.093 169.193 235.903C171.387 235.713 173.593 235.713 175.786 235.903Z" fill="#263238"/>
<path d="M188.972 235.903C186.778 236.093 184.572 236.093 182.379 235.903C184.572 235.713 186.778 235.713 188.972 235.903Z" fill="#263238"/>
<path d="M202.157 235.903C199.964 236.093 197.758 236.093 195.564 235.903C197.758 235.713 199.964 235.713 202.157 235.903Z" fill="#263238"/>
<path d="M215.343 235.903C213.149 236.093 210.944 236.093 208.75 235.903C210.944 235.713 213.149 235.713 215.343 235.903Z" fill="#263238"/>
<path d="M228.507 235.903C226.313 236.093 224.108 236.093 221.914 235.903C224.108 235.713 226.313 235.713 228.507 235.903Z" fill="#263238"/>
<path d="M241.714 235.903C239.52 236.093 237.315 236.093 235.121 235.903C237.315 235.713 239.52 235.713 241.714 235.903Z" fill="#263238"/>
<path d="M254.899 235.903C252.706 236.093 250.5 236.093 248.307 235.903C250.5 235.713 252.706 235.713 254.899 235.903Z" fill="#263238"/>
<path d="M268.091 235.903C265.897 236.093 263.692 236.093 261.498 235.903C263.692 235.713 265.897 235.713 268.091 235.903Z" fill="#263238"/>
<path d="M277.964 235.903C276.878 236.093 275.769 236.093 274.684 235.903C275.769 235.713 276.878 235.713 277.964 235.903Z" fill="#263238"/>
<g opacity="0.3">
<path opacity="0.3" d="M178.214 194.124C178.214 194.124 178.246 199.604 176.574 202.892C174.901 206.18 174.387 207.484 170.888 208.755C167.39 210.027 123.372 214.876 123.372 214.876V199.987L178.214 194.124Z" fill="black"/>
</g>
<g opacity="0.3">
<path opacity="0.3" d="M177.443 173.464C177.443 173.464 177.946 167.869 163.946 165.792C147.934 163.419 123.416 160.503 123.416 160.503V171.085L177.443 173.464Z" fill="black"/>
</g>
<path d="M170.412 168.389H124.87C120.549 168.389 117.047 171.9 117.047 176.231V196.671C117.047 201.002 120.549 204.513 124.87 204.513H170.412C174.733 204.513 178.235 201.002 178.235 196.671V176.231C178.235 171.9 174.733 168.389 170.412 168.389Z" fill="#61A705"/>
<path d="M124.87 204.508C124.87 204.508 124.711 204.508 124.405 204.508C123.946 204.49 123.491 204.428 123.044 204.322C122.313 204.156 121.611 203.883 120.961 203.51C120.07 203.006 119.288 202.33 118.66 201.521C117.863 200.507 117.328 199.312 117.102 198.041C116.988 197.317 116.944 196.583 116.97 195.849C116.97 195.093 116.97 194.304 116.97 193.488C116.97 190.227 116.97 186.517 116.97 182.412C116.97 180.357 116.97 178.215 116.97 175.968C117.007 174.784 117.308 173.622 117.851 172.57C118.394 171.517 119.165 170.6 120.108 169.885C121.099 169.121 122.261 168.61 123.492 168.395C124.117 168.291 124.75 168.247 125.384 168.263H135.224H170.451C171.637 168.261 172.81 168.525 173.881 169.037C174.952 169.549 175.894 170.296 176.639 171.222C177.625 172.434 178.23 173.912 178.377 175.469C178.438 176.242 178.416 176.993 178.421 177.744C178.421 179.245 178.421 180.734 178.421 182.21V190.906C178.421 192.326 178.421 193.734 178.421 195.121C178.421 195.822 178.449 196.502 178.421 197.203C178.401 197.551 178.359 197.897 178.295 198.239C178.221 198.576 178.13 198.908 178.022 199.236C177.577 200.519 176.813 201.667 175.802 202.571C174.791 203.475 173.566 204.106 172.244 204.404C171.928 204.477 171.609 204.533 171.287 204.574C170.965 204.601 170.642 204.612 170.32 204.623H164.771H151.378L131.982 204.574L126.707 204.546H125.34H124.87C124.87 204.546 125.028 204.546 125.34 204.546H126.707L131.982 204.519L151.378 204.475H164.771H168.439C169.685 204.442 170.959 204.579 172.184 204.256C173.451 203.952 174.622 203.332 175.585 202.452C176.549 201.572 177.274 200.462 177.694 199.225C178.164 197.959 178.099 196.584 178.099 195.192V190.978C178.099 188.139 178.099 185.235 178.099 182.281V177.815C178.099 177.064 178.099 176.302 178.06 175.568C177.913 174.066 177.33 172.641 176.382 171.469C175.905 170.889 175.354 170.375 174.742 169.94C174.107 169.521 173.417 169.191 172.692 168.959C171.958 168.745 171.199 168.631 170.434 168.619H135.207H125.367C124.747 168.603 124.126 168.645 123.514 168.745C122.321 168.952 121.196 169.445 120.234 170.181C119.317 170.874 118.566 171.763 118.036 172.784C117.507 173.806 117.212 174.933 117.173 176.083C117.145 178.313 117.173 180.467 117.173 182.522C117.173 186.627 117.173 190.337 117.173 193.597C117.173 194.414 117.173 195.203 117.173 195.959C117.145 196.683 117.185 197.407 117.293 198.124C117.555 199.618 118.245 201.003 119.277 202.112C120.309 203.221 121.641 204.006 123.11 204.371C123.552 204.482 124.004 204.551 124.46 204.579L124.87 204.508Z" fill="#263238"/>
<path d="M159.802 200.94C167.036 200.94 172.9 195.062 172.9 187.81C172.9 180.559 167.036 174.68 159.802 174.68C152.568 174.68 146.704 180.559 146.704 187.81C146.704 195.062 152.568 200.94 159.802 200.94Z" fill="#263238"/>
<path d="M163.158 198.535C164.266 198.123 165.317 197.57 166.285 196.891C167.315 196.134 168.21 195.207 168.931 194.151C169.829 192.869 170.424 191.398 170.669 189.851C170.914 188.304 170.804 186.722 170.347 185.224C169.99 183.994 169.424 182.836 168.674 181.799C167.968 180.851 167.141 180 166.214 179.267C166.214 179.267 166.296 179.3 166.427 179.388C166.63 179.514 166.825 179.651 167.012 179.799C167.701 180.342 168.314 180.974 168.838 181.678C169.624 182.722 170.22 183.896 170.598 185.147C171.085 186.681 171.206 188.307 170.954 189.896C170.701 191.485 170.082 192.993 169.144 194.299C168.4 195.366 167.475 196.293 166.411 197.039C165.696 197.545 164.917 197.953 164.093 198.25C163.872 198.335 163.645 198.406 163.415 198.464C163.335 198.504 163.248 198.528 163.158 198.535Z" fill="#FAFAFA"/>
<path d="M323.605 99.0343C324.048 103.816 323.066 108.622 320.782 112.844C318.498 117.065 315.016 120.512 310.777 122.748C306.537 124.985 301.731 125.909 296.967 125.405C292.202 124.901 287.695 122.99 284.015 119.916C280.334 116.842 277.647 112.742 276.293 108.135C274.939 103.528 274.98 98.6227 276.409 94.0393C277.839 89.4558 280.593 85.4007 284.324 82.3878C288.054 79.3748 292.593 77.5395 297.365 77.1143C303.743 76.5387 310.088 78.5236 315.008 82.6333C319.928 86.743 323.019 92.6416 323.605 99.0343Z" fill="#FF725E"/>
<g opacity="0.3">
<path opacity="0.3" d="M317.81 98.9574C317.701 98.9574 317.553 98.1738 317.132 96.7654C316.543 94.8234 315.658 92.9842 314.508 91.3128C313.715 90.172 312.798 89.1226 311.775 88.1837C310.605 87.1061 309.3 86.1851 307.894 85.4437C307.137 85.0438 306.351 84.7013 305.543 84.419C304.703 84.1229 303.842 83.8902 302.968 83.723C302.066 83.5495 301.152 83.4451 300.235 83.4107C299.286 83.3782 298.335 83.4167 297.392 83.5257C296.451 83.6429 295.52 83.826 294.604 84.0737C293.717 84.3293 292.851 84.6517 292.013 85.0382C290.424 85.7695 288.951 86.7295 287.64 87.8878C286.449 88.9373 285.398 90.1363 284.513 91.4553C283.745 92.6124 283.107 93.8511 282.61 95.1488C281.89 97.0445 281.469 99.0414 281.364 101.067C281.282 102.514 281.331 103.325 281.216 103.341C281.101 103.358 280.905 102.558 280.812 101.067C280.708 98.9481 280.997 96.8279 281.665 94.8145C282.658 91.7863 284.417 89.0676 286.77 86.9233C288.158 85.6492 289.728 84.5908 291.428 83.7833C292.328 83.3569 293.26 83.0032 294.216 82.7257C295.201 82.4432 296.206 82.2362 297.223 82.1064C298.241 81.9902 299.266 81.9499 300.289 81.9859C301.285 82.0304 302.275 82.1513 303.252 82.3475C305.095 82.724 306.871 83.3742 308.522 84.2765C311.317 85.7992 313.672 88.0189 315.361 90.721C316.491 92.516 317.277 94.5063 317.679 96.5901C317.909 98.1354 317.909 98.9574 317.81 98.9574Z" fill="black"/>
</g>
<g opacity="0.3">
<path opacity="0.3" d="M302.557 111.989L302.891 115.189L300.037 115.491L299.714 112.373C296.872 112.493 294.073 111.89 292.378 110.827L293.581 107.172C295.336 108.147 297.314 108.647 299.321 108.624L298.823 103.851C295.582 103.407 291.935 102.722 291.509 98.6288C291.192 95.5983 293.122 92.7707 297.572 91.7843L297.244 88.6113L300.097 88.3154L300.42 91.4281C302.471 91.3316 304.517 91.7221 306.389 92.5679L305.334 96.2176C303.912 95.5778 302.377 95.2276 300.819 95.1873L301.322 100.048C304.563 100.459 308.155 101.144 308.57 105.188C308.882 108.18 306.974 110.981 302.557 111.989ZM298.397 99.6481L297.971 95.5874C296.5 96.0861 295.986 96.9793 296.085 97.9219C296.183 98.8644 297.096 99.3795 298.397 99.6481ZM304.017 106.027C303.913 105.024 303.027 104.569 301.759 104.268L302.169 108.213C303.563 107.753 304.11 106.942 304.017 106.027Z" fill="black"/>
</g>
<path d="M281.141 102.887C281.159 102.934 281.172 102.984 281.179 103.035C281.179 103.15 281.223 103.292 281.255 103.468C281.288 103.643 281.321 103.901 281.365 104.169C281.409 104.491 281.473 104.809 281.556 105.123C282.342 108.538 284.069 111.664 286.542 114.143L287.405 114.932C287.553 115.058 287.69 115.2 287.848 115.326L288.335 115.688C288.663 115.929 288.985 116.198 289.335 116.422L290.429 117.085C291.994 117.972 293.678 118.627 295.431 119.031C299.223 119.9 303.193 119.534 306.763 117.984C308.412 117.267 309.95 116.315 311.328 115.156L312.279 114.307C312.585 114.022 312.825 113.699 313.126 113.403C313.263 113.255 313.405 113.107 313.536 112.959C313.667 112.811 313.782 112.641 313.908 112.488C314.143 112.17 314.378 111.863 314.613 111.556C315.41 110.38 316.075 109.119 316.597 107.797C317.353 105.872 317.783 103.835 317.871 101.769C317.893 101.446 317.893 101.122 317.871 100.799C317.871 100.525 317.871 100.284 317.871 100.086C317.871 99.8892 317.871 99.7631 317.871 99.6481C317.867 99.597 317.867 99.5457 317.871 99.4946C317.877 99.5438 317.877 99.5934 317.871 99.6426C317.871 99.7577 317.871 99.9056 317.904 100.081C317.937 100.256 317.904 100.519 317.942 100.799C317.968 101.124 317.968 101.45 317.942 101.774C317.897 103.858 317.492 105.918 316.745 107.863C316.235 109.213 315.571 110.501 314.766 111.699L314.083 112.658C313.957 112.817 313.842 112.986 313.711 113.14L313.296 113.595C313.017 113.896 312.749 114.219 312.437 114.51L311.481 115.381C310.086 116.561 308.528 117.532 306.856 118.264C303.241 119.839 299.218 120.211 295.376 119.327C293.597 118.913 291.888 118.241 290.303 117.332L289.209 116.658C288.854 116.428 288.532 116.154 288.198 115.913L287.712 115.54C287.553 115.414 287.411 115.266 287.258 115.135L286.372 114.302C285.368 113.272 284.482 112.132 283.732 110.904C282.644 109.127 281.871 107.175 281.447 105.134C281.369 104.818 281.314 104.498 281.283 104.175C281.25 103.901 281.223 103.659 281.195 103.462C281.168 103.265 281.163 103.139 281.146 103.024C281.14 102.978 281.138 102.932 281.141 102.887Z" fill="#263238"/>
<path d="M330.734 175.169C329.531 177.684 327.61 179.784 325.215 181.205C322.82 182.625 320.059 183.301 317.28 183.147C314.502 182.993 311.831 182.016 309.607 180.339C307.383 178.663 305.705 176.363 304.786 173.73C303.866 171.098 303.747 168.251 304.443 165.55C305.138 162.849 306.618 160.416 308.694 158.558C310.77 156.701 313.349 155.503 316.105 155.115C318.86 154.728 321.669 155.169 324.174 156.383C325.835 157.185 327.323 158.306 328.552 159.684C329.78 161.062 330.726 162.669 331.336 164.414C331.945 166.158 332.205 168.006 332.102 169.851C331.999 171.696 331.534 173.503 330.734 175.169Z" fill="#FF725E"/>
<g opacity="0.3">
<path opacity="0.3" d="M327.886 173.409C327.942 172.97 328.045 172.539 328.192 172.121C328.474 170.977 328.579 169.796 328.503 168.62C328.444 167.814 328.3 167.016 328.072 166.241C327.803 165.358 327.422 164.513 326.94 163.726C326.679 163.302 326.389 162.897 326.071 162.515C325.033 161.272 323.724 160.285 322.244 159.632C321.739 159.411 321.218 159.228 320.686 159.084C320.167 158.948 319.639 158.851 319.106 158.794C318.593 158.735 318.076 158.717 317.559 158.739C317.062 158.759 316.567 158.815 316.078 158.909C315.172 159.074 314.291 159.358 313.459 159.753C312.732 160.102 312.045 160.528 311.409 161.024C310.488 161.759 309.686 162.631 309.031 163.611C308.818 164 308.568 164.367 308.282 164.707C308.348 164.259 308.511 163.831 308.758 163.452C309.335 162.353 310.114 161.373 311.054 160.564C311.699 160.002 312.409 159.52 313.169 159.128C314.045 158.678 314.977 158.348 315.941 158.147C317.019 157.924 318.125 157.865 319.221 157.972C319.797 158.029 320.367 158.132 320.927 158.279C321.502 158.434 322.064 158.632 322.61 158.871C323.154 159.115 323.679 159.401 324.179 159.726C324.662 160.043 325.119 160.399 325.546 160.789C325.962 161.163 326.346 161.572 326.694 162.011C327.03 162.425 327.334 162.865 327.601 163.326C328.104 164.183 328.488 165.105 328.744 166.066C328.961 166.893 329.081 167.743 329.099 168.598C329.13 169.831 328.932 171.059 328.514 172.22C328.389 172.656 328.175 173.06 327.886 173.409Z" fill="black"/>
</g>
<g opacity="0.3">
<path opacity="0.3" d="M316.405 175.36L315.623 177.054L314.109 176.352L314.874 174.708C313.551 174.039 312.442 173.012 311.671 171.744L313.36 170.28C313.946 171.292 314.785 172.135 315.793 172.725L316.968 170.193C315.476 169.004 313.863 167.568 314.869 165.403C315.612 163.798 317.411 162.959 319.926 163.798L320.707 162.115L322.216 162.822L321.451 164.466C322.504 165.029 323.409 165.835 324.091 166.817L322.451 168.33C321.932 167.586 321.27 166.952 320.505 166.466L319.313 169.042C320.806 170.215 322.391 171.634 321.402 173.771C320.696 175.36 318.914 176.166 316.405 175.36ZM317.996 167.957L318.996 165.809C318.111 165.617 317.586 165.907 317.356 166.406C317.127 166.905 317.433 167.425 317.996 167.946V167.957ZM318.909 172.823C319.149 172.275 318.849 171.798 318.302 171.267L317.334 173.36C318.16 173.536 318.706 173.294 318.909 172.812V172.823Z" fill="black"/>
</g>
<path d="M308.424 164.4C308.424 164.4 308.26 164.844 307.992 165.65C307.63 166.79 307.46 167.983 307.489 169.179C307.511 170.002 307.623 170.819 307.823 171.618C308.061 172.54 308.411 173.429 308.867 174.264C309.385 175.168 310.029 175.993 310.78 176.714C312.403 178.275 314.481 179.273 316.711 179.564C317.741 179.698 318.785 179.683 319.811 179.52C321.559 179.239 323.209 178.525 324.611 177.443C325.558 176.714 326.38 175.835 327.043 174.84C327.497 174.127 327.71 173.7 327.738 173.716C327.705 173.826 327.659 173.931 327.601 174.029C327.462 174.326 327.307 174.615 327.136 174.895C326.499 175.93 325.687 176.846 324.737 177.602C323.325 178.741 321.643 179.496 319.855 179.794C318.803 179.971 317.731 179.991 316.673 179.854C315.538 179.695 314.433 179.368 313.393 178.884C312.367 178.377 311.421 177.72 310.589 176.933C309.822 176.192 309.166 175.343 308.643 174.412C308.166 173.567 307.799 172.665 307.549 171.727C307.356 170.91 307.255 170.074 307.249 169.234C307.235 168.019 307.437 166.811 307.845 165.666C307.951 165.356 308.079 165.054 308.227 164.762C308.278 164.634 308.344 164.513 308.424 164.4Z" fill="#263238"/>
<path d="M98.6408 173.168C99.3068 177.674 98.624 182.277 96.6788 186.394C94.7336 190.511 91.6135 193.956 87.7136 196.294C83.8137 198.633 79.3094 199.758 74.771 199.528C70.2326 199.299 65.8643 197.724 62.2191 195.004C58.574 192.284 55.816 188.541 54.2943 184.249C52.7726 179.957 52.5558 175.308 53.6711 170.892C54.7865 166.476 57.184 162.492 60.56 159.442C63.936 156.393 68.1387 154.417 72.6359 153.764C75.6144 153.326 78.6499 153.48 81.5688 154.219C84.4877 154.957 87.233 156.264 89.6478 158.066C92.0627 159.868 94.0997 162.129 95.6428 164.721C97.1858 167.312 98.2045 170.182 98.6408 173.168Z" fill="#FF725E"/>
<g opacity="0.3">
<path opacity="0.3" d="M93.152 173.398C93.0481 173.398 92.8623 172.669 92.3921 171.382C91.7376 169.57 90.8043 167.873 89.626 166.351C88.8191 165.316 87.9026 164.371 86.8927 163.534C85.7248 162.582 84.4385 161.786 83.066 161.167C82.3287 160.828 81.5666 160.546 80.7864 160.323C79.9764 160.076 79.1484 159.893 78.31 159.775C77.4441 159.657 76.5706 159.606 75.6969 159.622C74.7971 159.644 73.9 159.732 73.0128 159.885C72.1263 160.046 71.2529 160.273 70.3997 160.564C69.5735 160.854 68.7696 161.203 67.9944 161.611C67.2462 162.006 66.5297 162.458 65.8515 162.964C65.1966 163.445 64.5772 163.972 63.9983 164.543C61.9851 166.526 60.4841 168.971 59.6249 171.667C59.0415 173.502 58.7482 175.418 58.7557 177.344C58.7557 178.714 58.8377 179.481 58.7557 179.497C58.6737 179.514 58.4168 178.774 58.2583 177.371C58.0426 175.369 58.2058 173.345 58.7393 171.404C59.1013 170.053 59.6224 168.751 60.2919 167.524C61.0707 166.114 62.0341 164.814 63.1564 163.66C63.7637 163.034 64.4179 162.455 65.1135 161.929C65.8372 161.375 66.6031 160.878 67.404 160.444C68.2341 159.993 69.0988 159.61 69.9897 159.298C71.8274 158.647 73.759 158.303 75.7079 158.279C76.6515 158.269 77.5945 158.331 78.5287 158.465C79.4309 158.594 80.3212 158.795 81.1909 159.068C82.024 159.324 82.8371 159.64 83.6236 160.016C86.348 161.313 88.6937 163.291 90.4351 165.759C91.5966 167.403 92.4454 169.248 92.9388 171.201C93.2231 172.62 93.2285 173.387 93.152 173.398Z" fill="black"/>
</g>
<g opacity="0.3">
<path opacity="0.3" d="M79.3877 186.528L79.8687 189.542L77.1846 189.975L76.7145 187.038C74.0303 187.301 71.3462 186.879 69.6843 185.942L70.6355 182.418C72.3474 183.26 74.2489 183.637 76.1514 183.514L75.4353 179.021C72.3357 178.774 68.8479 178.308 68.2302 174.461C67.7765 171.606 69.4547 168.823 73.6203 167.661L73.1393 164.669L75.8289 164.241L76.2935 167.173C78.2332 166.974 80.1923 167.237 82.0117 167.94L81.1971 171.469C79.8155 170.936 78.3418 170.685 76.8621 170.73L77.5946 175.305C80.6887 175.525 84.1218 175.996 84.7286 179.793C85.1769 182.588 83.5205 185.339 79.3877 186.528ZM74.8011 175.059L74.1889 171.223C72.8167 171.771 72.3794 172.648 72.5215 173.535C72.6637 174.423 73.5602 174.872 74.8011 175.059ZM80.4591 180.807C80.3061 179.865 79.4478 179.476 78.2287 179.256L78.8191 182.972C80.1147 182.484 80.5958 181.668 80.4591 180.807Z" fill="black"/>
</g>
<path d="M58.6301 179.032C58.6465 179.076 58.6593 179.122 58.6683 179.169C58.6957 179.273 58.7285 179.41 58.7667 179.574L58.9089 180.232C58.9676 180.534 59.0442 180.832 59.1385 181.125C59.6816 183.007 60.5333 184.785 61.6586 186.386C62.4348 187.487 63.3314 188.498 64.3318 189.4L65.1901 190.101C65.3377 190.216 65.4798 190.342 65.6329 190.452L66.1139 190.77C66.4365 190.978 66.7535 191.214 67.0979 191.411L68.1585 191.959C69.6873 192.716 71.3165 193.249 72.9965 193.543C74.806 193.83 76.6477 193.85 78.4631 193.603C80.2715 193.31 82.0281 192.756 83.6783 191.959C85.2001 191.191 86.6046 190.21 87.8494 189.044L88.7022 188.183C88.981 187.898 89.2106 187.58 89.4621 187.29L89.8283 186.846C89.9486 186.693 90.047 186.534 90.1509 186.38C90.3641 186.068 90.5663 185.761 90.7741 185.46C91.4657 184.304 92.0303 183.077 92.4578 181.799C93.0728 179.939 93.374 177.988 93.3489 176.029C93.3596 175.721 93.3468 175.413 93.3106 175.108C93.3106 174.85 93.2723 174.626 93.2614 174.434C93.2505 174.242 93.2614 174.133 93.2341 174.017C93.2269 173.97 93.2269 173.922 93.2341 173.875C93.2508 173.921 93.2601 173.969 93.2614 174.017C93.2614 174.127 93.2942 174.264 93.3161 174.428C93.3379 174.593 93.3653 174.845 93.3981 175.103C93.4399 175.409 93.4599 175.719 93.4582 176.029C93.5291 178.005 93.2553 179.978 92.6491 181.859C92.2331 183.161 91.67 184.412 90.9709 185.586L90.3531 186.517C90.2438 186.676 90.1454 186.841 90.0251 186.994L89.6589 187.443C89.4074 187.745 89.1723 188.068 88.8935 188.359C88.6147 188.649 88.3469 188.94 88.0298 189.23C86.7705 190.423 85.3453 191.428 83.7986 192.211C80.4499 193.896 76.65 194.459 72.9582 193.817C71.2476 193.51 69.5904 192.956 68.0382 192.173L66.9449 191.586C66.595 191.389 66.2779 191.148 65.9499 190.934L65.4634 190.611C65.3103 190.496 65.1682 190.364 65.0151 190.249L64.1514 189.537C63.1459 188.614 62.2473 187.581 61.4727 186.457C60.3505 184.83 59.5181 183.021 59.0127 181.109C58.919 180.813 58.8495 180.511 58.805 180.204C58.7613 179.947 58.723 179.728 58.6847 179.536L58.6191 179.125C58.6201 179.094 58.6238 179.062 58.6301 179.032Z" fill="#263238"/>
<path d="M387.297 245.614C387.297 245.696 305.674 245.762 205.011 245.762C104.348 245.762 22.7031 245.696 22.7031 245.614C22.7031 245.531 104.31 245.471 205.011 245.471C305.712 245.471 387.297 245.537 387.297 245.614Z" fill="#263238"/>
</svg>
